<?xml version="1.0" encoding="iso-8859-1"?>
<!-- Generator: Adobe Illustrator 19.0.0, SVG Export Plug-In . SVG Version: 6.00 Build 0)  -->
<svg version="1.1" id="cake" xmlns="http://www.w3.org/2000/svg" xmlns:xlink="http://www.w3.org/1999/xlink" x="0px" y="0px"
	 viewBox="0 0 512 512" style="enable-background:new 0 0 512 512;" xml:space="preserve">
<circle style="fill:#00BB64;" cx="256" cy="256" r="256"/>
<path class="cake__shadow" style="fill:#008C49;" d="M511.958,259.34L400.529,147.912c-5.476-6.954-13.957-11.444-23.442-11.444h-53.991l-38.998-39.06
	c-7.2-7.176-17.13-11.614-28.098-11.614c-21.988,0-39.813,17.825-39.813,39.813c0,3.768,0.537,7.408,1.518,10.862h-82.793
	c-16.412,0-29.84,13.428-29.84,29.84v183.036H75.344v43.449l109.039,109.039C207.112,508.442,231.139,512,256,512
	C396.268,512,510.167,399.183,511.958,259.34z"/>
<path class="cake__cherry" style="fill:#E02424;" d="M295.813,125.606c0-21.988-17.825-39.813-39.813-39.813s-39.813,17.825-39.813,39.813
	c0,5.665,1.191,11.049,3.323,15.927h72.979C294.622,136.655,295.813,131.271,295.813,125.606z"/>
<path class="cake__cherry--right" style="fill:#C2001B;" d="M295.81,125.61c0,3.77-0.53,7.41-1.51,10.86c-0.49,1.74-1.09,3.43-1.81,5.06H256V85.79
	C277.99,85.79,295.81,103.62,295.81,125.61z"/>
<path class="cake__chocolate" style="fill:#C06200;" d="M406.927,355.704H105.073V166.308c0-16.412,13.428-29.84,29.84-29.84h242.175
	c16.412,0,29.84,13.428,29.84,29.84v189.396H406.927z"/>
<path class="cake__chocolate--right" style="fill:#703700;" d="M406.93,166.31V355.7H256V136.47h121.09C393.5,136.47,406.93,149.9,406.93,166.31z"/>
<rect class="cake__plate" x="75.34" y="349.34" style="fill:#FFFFFF;" width="361.31" height="43.45"/>
<rect class="cake__plate--right" x="256" y="349.34" style="fill:#E1E1E3;" width="180.66" height="43.45"/>
<path class="cake__cream" style="fill:#FFF5CB;" d="M377.087,136.468H134.913c-16.412,0-29.84,13.428-29.84,29.84v50.784
	c2.974,0.514,6.026,0.797,9.147,0.797c20.527,0,38.336-11.598,47.26-28.592c8.924,16.994,26.733,28.592,47.26,28.592
	s38.336-11.598,47.26-28.592c8.924,16.994,26.733,28.592,47.26,28.592s38.336-11.598,47.26-28.592
	c8.924,16.994,26.733,28.592,47.26,28.592c3.121,0,6.173-0.283,9.147-0.797v-50.784
	C406.927,149.896,393.499,136.468,377.087,136.468z"/>
<path class="cake__cream--right" style="fill:#FFE670;" d="M406.93,166.31v50.78c-2.98,0.52-6.03,0.8-9.15,0.8c-20.53,0-38.34-11.6-47.26-28.59
	c-8.92,16.99-26.73,28.59-47.26,28.59s-38.34-11.6-47.26-28.59v-52.83h121.09C393.5,136.47,406.93,149.9,406.93,166.31z"/>
<rect class="ceke__middle" x="105.07" y="250.25" style="fill:#FFE047;" width="301.86" height="56.05"/>
<rect class="ceke__middle--right" x="256" y="250.25" style="fill:#FEC000;" width="150.93" height="56.05"/>
</svg>

