<?xml version="1.0" encoding="iso-8859-1"?>
<!-- Generator: Adobe Illustrator 19.0.0, SVG Export Plug-In . SVG Version: 6.00 Build 0)  -->
<svg version="1.1" id="ice-cream" xmlns="http://www.w3.org/2000/svg" xmlns:xlink="http://www.w3.org/1999/xlink" x="0px" y="0px"
	 viewBox="0 0 512 512" style="enable-background:new 0 0 512 512;" xml:space="preserve">
<circle style="fill:#00E7F1;" cx="256" cy="256" r="256"/>
<path class="ice-cream__shadow" style="fill:#00B7BE;" d="M512,256c0-14.642-1.247-28.991-3.608-42.961L395.973,100.62
	c-34.183-34.183-90.114-34.19-124.297-0.007L165.112,207.177c-30.324,30.325-33.717,77.772-10.222,111.963l-54.729,54.729
	c-9.407,9.407-9.407,24.799,0,34.206l97.158,97.158C216.164,509.653,235.807,512,256,512C397.385,512,512,397.385,512,256z"/>
<path class="ice-cream__stick" style="fill:#FFDBA9;" d="M104.796,412.198l-4.994-4.994c-8.928-8.927-8.928-23.536,0-32.464l61.75-61.75l37.458,37.458
	l-61.75,61.75C128.332,421.126,113.724,421.126,104.796,412.198z"/>
<path class="ice-cream__stick--right" style="fill:#FFB74F;" d="M199.009,350.45l-60.878,60.878c-9.41,9.41-24.795,9.402-34.205-0.008l-1.624-1.624l77.977-77.977
	L199.009,350.45z"/>
<path class="ice-cream__chocolate" style="fill:#C06200;" d="M411.386,239.811L304.821,346.375c-34.175,34.175-90.114,34.175-124.289,0l-14.901-14.901
	c-34.183-34.183-34.183-90.121-0.007-124.297l106.564-106.565c34.183-34.183,90.114-34.175,124.297,0.007l14.901,14.901
	C445.561,149.697,445.569,205.628,411.386,239.811z"/>
<path class="ice-cream__chocolate--right" style="fill:#703700;" d="M411.393,239.811L304.821,346.382c-30.331,30.331-77.791,33.728-111.973,10.23
	c-4.336-2.98-8.464-6.393-12.316-10.245l-7.45-7.451L403.928,108.07l7.451,7.451C445.554,149.697,445.576,205.628,411.393,239.811z"
	/>
<path class="ice-cream__cream" style="fill:#FFFFFF;" d="M411.386,239.811l-96.491,96.491c-7.22,2.585-15.639,1.021-21.405-4.746
	c-7.957-7.957-7.95-20.973,0.007-28.93l77.865-77.865c2.004-3.852,2.697-8.225,2.086-12.442c-0.618-4.21-2.533-8.27-5.752-11.489
	c-6.445-6.445-16.22-7.667-23.931-3.666l-25.943,25.943c-7.957,7.957-20.973,7.965-28.93,0.007c-7.957-7.957-7.957-20.98,0-28.938
	l15.609-15.609c1.997-3.859,2.697-8.225,2.086-12.442c-0.604-4.21-2.526-8.263-5.752-11.489c-6.445-6.445-16.22-7.667-23.924-3.658
	l-47.638,47.639c-3.979,3.979-9.216,5.968-14.461,5.968s-10.498-1.989-14.476-5.968c-5.767-5.767-7.324-14.178-4.746-21.405
	l76.599-76.599c34.183-34.183,90.114-34.175,124.297,0.007l14.901,14.901C445.561,149.697,445.569,205.628,411.386,239.811z"/>
<path class="ice-cream__cream--right" style="fill:#FFE670;" d="M411.393,239.811l-96.491,96.491c-7.234,2.585-15.646,1.013-21.413-4.753
	c-7.95-7.95-7.95-20.973,0-28.923l77.873-77.873c1.997-3.845,2.697-8.225,2.086-12.442c-0.618-4.21-2.533-8.27-5.752-11.489
	c-6.437-6.437-16.227-7.659-23.923-3.658l-25.95,25.95c-7.95,7.95-20.973,7.95-28.93-0.007l115.036-115.036l7.451,7.451
	C445.554,149.697,445.576,205.628,411.393,239.811z"/>
</svg>
