<?xml version="1.0" encoding="iso-8859-1"?>
<!-- Generator: Adobe Illustrator 19.0.0, SVG Export Plug-In . SVG Version: 6.00 Build 0)  -->
<svg version="1.1" id="toast" xmlns="http://www.w3.org/2000/svg" xmlns:xlink="http://www.w3.org/1999/xlink" x="0px" y="0px"
	 viewBox="0 0 512 512" style="enable-background:new 0 0 512 512;" xml:space="preserve">
<circle style="fill:#FFE047;" cx="256" cy="256" r="256"/>
<path class="shadow" style="fill:#FEC000;" d="M512,256c0-3.757-0.098-7.49-0.258-11.208l-135.19-135.19C346.957,78.136,300.633,61.667,256,61.667
	c-73.68,0-151.989,44.87-151.989,128.025c0,41.182,19.921,70.116,28.313,80.478l-16.831,153.664l81.262,81.262
	C215.773,509.602,235.605,512,256,512C397.385,512,512,397.385,512,256z"/>
<path class="toast__bread" style="fill:#FFDBA9;" d="M396.787,189.692c0-76.468-73.048-116.824-140.787-116.824s-140.788,40.356-140.788,116.824
	c0,47.116,28.777,76.853,28.777,76.853l-16.002,146.088h256.024L368.01,266.545C368.01,266.545,396.787,236.808,396.787,189.692z"/>
<path class="toast__bread--right" style="fill:#FFB74F;" d="M368.01,266.54l16,146.09H256V72.87c67.74,0,140.79,40.35,140.79,116.82
	C396.79,236.81,368.01,266.54,368.01,266.54z"/>
<path class="toast__bread-border" style="fill:#C06200;" d="M396.507,423.833H115.493l16.831-153.664c-8.392-10.362-28.313-39.296-28.313-80.478
	c0-83.155,78.308-128.025,151.989-128.025s151.989,44.87,151.989,128.025c0,41.182-19.921,70.116-28.313,80.478L396.507,423.833z
	 M140.483,401.431h231.034l-15.214-138.896l3.659-3.78c0.228-0.24,25.625-27.357,25.625-69.064
	c0-68.605-66.767-105.623-129.587-105.623s-129.586,37.018-129.586,105.623c0,42.097,25.369,68.798,25.625,69.064l3.658,3.78
	L140.483,401.431z"/>
<path class="toast__bread-border--right" style="fill:#703700;" d="M407.99,189.69c0-83.15-78.31-128.02-151.99-128.02v22.4c62.82,0,129.59,37.02,129.59,105.62
	c0,41.71-25.4,68.82-25.63,69.07l-3.66,3.78l15.22,138.89H256v22.4h140.51l-16.83-153.66C388.07,259.81,407.99,230.87,407.99,189.69
	z"/>
<path class="toast__egg-white" style="fill:#FFFFFF;" d="M263.595,127.969c-65.122-8.708-132.782,46.273-91.763,109.82
	c37.281,57.757-13.32,80.793,19.241,120.464c28.694,34.959,123.409,0.062,146.032-60.958
	C354.372,250.722,368.078,141.941,263.595,127.969z"/>
<path class="toast__egg-white--right" style="fill:#FFF5CB;" d="M337.104,297.296c17.267-46.574,30.974-155.355-73.509-169.326c-2.53-0.338-5.064-0.569-7.595-0.718
	v240.151C289.488,357.195,324.494,331.307,337.104,297.296z"/>
<circle class="toast__egg-yolk" style="fill:#FFCF00;" cx="256" cy="240.87" r="42.553"/>
<path class="toast__egg-yolk--right" style="fill:#ECB300;" d="M298.551,240.865c0,23.5-19.051,42.551-42.551,42.551v-85.102
	C279.5,198.314,298.551,217.365,298.551,240.865z"/>
</svg>
